<svg width="46" height="47" viewBox="0 0 46 47" fill="none" xmlns="http://www.w3.org/2000/svg">
<path d="M38.1608 30.2275H29.4783C28.97 30.2275 28.4825 30.4294 28.123 30.7889C27.7636 31.1483 27.5617 31.6358 27.5617 32.1441C27.5617 32.6525 27.7636 33.14 28.123 33.4994C28.4825 33.8589 28.97 34.0608 29.4783 34.0608H34.0783C31.9641 36.2702 29.2376 37.797 26.2491 38.445C23.2605 39.093 20.1465 38.8326 17.3071 37.6972C14.4677 36.5618 12.0326 34.6034 10.3147 32.0736C8.59685 29.5437 7.67467 26.558 7.66667 23.5C7.66667 22.9916 7.46473 22.5041 7.10529 22.1447C6.74584 21.7852 6.25833 21.5833 5.75 21.5833C5.24167 21.5833 4.75416 21.7852 4.39471 22.1447C4.03527 22.5041 3.83333 22.9916 3.83333 23.5C3.84346 27.2428 4.94926 30.9008 7.01424 34.0225C9.07922 37.1442 12.013 39.593 15.4536 41.0667C18.8942 42.5403 22.6909 42.9743 26.3753 42.3152C30.0597 41.6561 33.4704 39.9326 36.1867 37.3575V40.75C36.1867 41.2583 36.3886 41.7458 36.748 42.1053C37.1075 42.4647 37.595 42.6666 38.1033 42.6666C38.6117 42.6666 39.0992 42.4647 39.4586 42.1053C39.8181 41.7458 40.02 41.2583 40.02 40.75V32.125C40.0153 31.6298 39.819 31.1556 39.4725 30.8019C39.1259 30.4482 38.6558 30.2423 38.1608 30.2275ZM23 4.33331C18.0864 4.34733 13.3659 6.2479 9.81333 9.64248V6.24998C9.81333 5.74165 9.6114 5.25414 9.25195 4.89469C8.89251 4.53525 8.405 4.33331 7.89667 4.33331C7.38833 4.33331 6.90082 4.53525 6.54138 4.89469C6.18193 5.25414 5.98 5.74165 5.98 6.24998V14.875C5.98 15.3833 6.18193 15.8708 6.54138 16.2303C6.90082 16.5897 7.38833 16.7916 7.89667 16.7916H16.5217C17.03 16.7916 17.5175 16.5897 17.877 16.2303C18.2364 15.8708 18.4383 15.3833 18.4383 14.875C18.4383 14.3666 18.2364 13.8791 17.877 13.5197C17.5175 13.1602 17.03 12.9583 16.5217 12.9583H11.9217C14.0347 10.7501 16.7595 9.22369 19.7463 8.5751C22.733 7.92652 25.8455 8.18532 28.6841 9.3183C31.5227 10.4513 33.958 12.4067 35.6773 14.9336C37.3966 17.4606 38.3215 20.4436 38.3333 23.5C38.3333 24.0083 38.5353 24.4958 38.8947 24.8553C39.2542 25.2147 39.7417 25.4166 40.25 25.4166C40.7583 25.4166 41.2458 25.2147 41.6053 24.8553C41.9647 24.4958 42.1667 24.0083 42.1667 23.5C42.1667 20.983 41.6709 18.4906 40.7077 16.1652C39.7445 13.8398 38.3327 11.7269 36.5529 9.9471C34.7731 8.16731 32.6602 6.7555 30.3348 5.79229C28.0094 4.82907 25.517 4.33331 23 4.33331Z" fill="white"/>
</svg>
