<svg width="46" height="47" viewBox="0 0 46 47" fill="none" xmlns="http://www.w3.org/2000/svg">
<path d="M23 42.6667C20.3486 42.6667 17.8569 42.1633 15.525 41.1564C13.1931 40.1495 11.1646 38.7842 9.43958 37.0605C7.71458 35.3355 6.34928 33.307 5.34367 30.975C4.33805 28.6431 3.83461 26.1514 3.83333 23.5C3.83333 20.8487 4.33678 18.357 5.34367 16.025C6.35055 13.6931 7.71586 11.6646 9.43958 9.93962C11.1646 8.21462 13.1931 6.84932 15.525 5.84371C17.8569 4.8381 20.3486 4.33465 23 4.33337H24.9167V20.1938C25.4917 20.5452 25.9549 21.0007 26.3062 21.5604C26.6576 22.12 26.8333 22.7666 26.8333 23.5C26.8333 24.5542 26.4577 25.457 25.7063 26.2083C24.955 26.9596 24.0529 27.3347 23 27.3334C21.9458 27.3334 21.0431 26.9577 20.2917 26.2064C19.5404 25.455 19.1654 24.5529 19.1667 23.5C19.1667 22.7653 19.3424 22.1105 19.6937 21.5355C20.0451 20.9605 20.5083 20.5132 21.0833 20.1938V16.073C19.4222 16.5202 18.0486 17.4229 16.9625 18.7812C15.8764 20.1395 15.3333 21.7124 15.3333 23.5C15.3333 25.6084 16.084 27.4132 17.5854 28.9146C19.0868 30.416 20.8917 31.1667 23 31.1667C25.1083 31.1667 26.9132 30.416 28.4146 28.9146C29.916 27.4132 30.6667 25.6084 30.6667 23.5C30.6667 22.35 30.4347 21.2876 29.9709 20.3126C29.5071 19.3377 28.8765 18.4835 28.0792 17.75L30.8104 15.0188C31.9285 16.073 32.8229 17.3271 33.4937 18.7812C34.1646 20.2353 34.5 21.8083 34.5 23.5C34.5 26.6945 33.3819 29.4098 31.1458 31.6459C28.9097 33.882 26.1944 35 23 35C19.8056 35 17.0903 33.882 14.8542 31.6459C12.6181 29.4098 11.5 26.6945 11.5 23.5C11.5 20.625 12.4104 18.1251 14.2312 16.0001C16.0521 13.8752 18.3361 12.5897 21.0833 12.1438V8.26254C17.2819 8.74171 14.0952 10.4188 11.523 13.2938C8.95083 16.1688 7.66539 19.5709 7.66667 23.5C7.66667 27.7806 9.15208 31.4063 12.1229 34.3771C15.0937 37.348 18.7194 38.8334 23 38.8334C27.2806 38.8334 30.9062 37.348 33.8771 34.3771C36.8479 31.4063 38.3333 27.7806 38.3333 23.5C38.3333 21.2959 37.9021 19.2355 37.0396 17.3188C36.1771 15.4021 34.9951 13.741 33.4937 12.3355L36.225 9.60421C38.0458 11.3612 39.4916 13.4299 40.5624 15.8104C41.6332 18.1909 42.1679 20.7541 42.1667 23.5C42.1667 26.1514 41.6632 28.6431 40.6563 30.975C39.6494 33.307 38.2841 35.3355 36.5604 37.0605C34.8354 38.7855 32.8069 40.1514 30.475 41.1583C28.1431 42.1652 25.6514 42.668 23 42.6667Z" fill="white"/>
</svg>
