<svg width="24" height="25" viewBox="0 0 24 25" fill="none" xmlns="http://www.w3.org/2000/svg">
<path d="M12.001 2.5C17.524 2.5 22.001 6.977 22.001 12.5C22.001 18.023 17.524 22.5 12.001 22.5C10.2338 22.5029 8.49765 22.0352 6.97099 21.145L2.00499 22.5L3.35699 17.532C2.46608 16.0049 1.99804 14.268 2.00099 12.5C2.00099 6.977 6.47799 2.5 12.001 2.5ZM8.59299 7.8L8.39299 7.808C8.26351 7.81589 8.13697 7.8499 8.02099 7.908C7.91251 7.96943 7.81349 8.04622 7.72699 8.136C7.60699 8.249 7.53899 8.347 7.46599 8.442C7.09611 8.9229 6.89696 9.51331 6.89999 10.12C6.90199 10.61 7.02999 11.087 7.22999 11.533C7.63899 12.435 8.31199 13.39 9.19999 14.275C9.41399 14.488 9.62399 14.702 9.84999 14.901C10.9534 15.8725 12.2682 16.573 13.69 16.947L14.258 17.034C14.443 17.044 14.628 17.03 14.814 17.021C15.1052 17.006 15.3896 16.9271 15.647 16.79C15.7779 16.7225 15.9057 16.6491 16.03 16.57C16.03 16.57 16.073 16.542 16.155 16.48C16.29 16.38 16.373 16.309 16.485 16.192C16.568 16.106 16.64 16.005 16.695 15.89C16.773 15.727 16.851 15.416 16.883 15.157C16.907 14.959 16.9 14.851 16.897 14.784C16.893 14.677 16.804 14.566 16.707 14.519L16.125 14.258C16.125 14.258 15.255 13.879 14.723 13.637C14.6673 13.6127 14.6077 13.5988 14.547 13.596C14.4786 13.589 14.4094 13.5967 14.3442 13.6186C14.279 13.6405 14.2193 13.6761 14.169 13.723C14.164 13.721 14.097 13.778 13.374 14.654C13.3325 14.7098 13.2753 14.7519 13.2098 14.7751C13.1443 14.7982 13.0733 14.8013 13.006 14.784C12.9408 14.7665 12.877 14.7445 12.815 14.718C12.691 14.666 12.648 14.646 12.563 14.61C11.9891 14.3595 11.4577 14.0211 10.988 13.607C10.862 13.497 10.745 13.377 10.625 13.261C10.2316 12.8842 9.88871 12.458 9.60499 11.993L9.54599 11.898C9.50361 11.8342 9.46935 11.7653 9.44399 11.693C9.40599 11.546 9.50499 11.428 9.50499 11.428C9.50499 11.428 9.74799 11.162 9.86099 11.018C9.97099 10.878 10.064 10.742 10.124 10.645C10.242 10.455 10.279 10.26 10.217 10.109C9.93699 9.425 9.64699 8.744 9.34899 8.068C9.28999 7.934 9.11499 7.838 8.95599 7.819C8.90199 7.813 8.84799 7.807 8.79399 7.803C8.6597 7.79633 8.52513 7.79766 8.39099 7.807L8.59199 7.799L8.59299 7.8Z" fill="#837D88"/>
</svg>
