<svg width="35" height="33" viewBox="0 0 35 33" fill="none" xmlns="http://www.w3.org/2000/svg">
<path d="M1.35 0.400024C1.655 0.400024 1.94751 0.521185 2.16317 0.736852C2.37884 0.952519 2.5 1.24503 2.5 1.55002V31.45C2.5 31.755 2.37884 32.0475 2.16317 32.2632C1.94751 32.4789 1.655 32.6 1.35 32.6C1.045 32.6 0.752495 32.4789 0.536828 32.2632C0.321161 32.0475 0.200001 31.755 0.200001 31.45V1.55002C0.200001 1.24503 0.321161 0.952519 0.536828 0.736852C0.752495 0.521185 1.045 0.400024 1.35 0.400024ZM13.8781 0.892224C13.4454 0.60155 12.9417 0.434001 12.4211 0.407506C11.9005 0.381011 11.3825 0.496567 10.9225 0.741809C10.4625 0.987051 10.0778 1.35275 9.80961 1.79978C9.54144 2.2468 9.39985 2.75833 9.4 3.27962V29.7296C9.39996 30.2525 9.54252 30.7655 9.81235 31.2134C10.0822 31.6613 10.469 32.0271 10.9313 32.2715C11.3936 32.5159 11.9138 32.6296 12.4358 32.6003C12.9579 32.5711 13.4621 32.4 13.8942 32.1055L33.4442 18.7816C33.8322 18.5167 34.1493 18.1608 34.3679 17.7449C34.5864 17.3291 34.6997 16.866 34.6979 16.3962C34.6961 15.9265 34.5792 15.4643 34.3574 15.0502C34.1357 14.636 33.8158 14.2825 33.4258 14.0206L13.8781 0.892224Z" fill="white"/>
</svg>
