<svg width="89" height="38" viewBox="0 0 89 38" fill="none" xmlns="http://www.w3.org/2000/svg">
<path d="M6.30823 9.35427V29.0625H3.73882V9.35427H6.30823ZM18.1032 14.3801C19.6656 14.3801 20.8985 14.9072 21.8021 15.9613C22.7056 17.0154 23.1574 18.3331 23.1574 19.9143V29.0625H20.5879V20.1966C20.5879 17.9001 19.5526 16.7519 17.4821 16.7519C15.8444 16.7519 14.3009 17.6554 12.8515 19.4625V29.0625H10.2821V14.6625H12.5409L12.8515 16.4696V16.8931H12.9079C14.4326 15.2178 16.1644 14.3801 18.1032 14.3801Z" fill="black"/>
<path d="M6.30823 9.35427H7.30823V8.35427H6.30823V9.35427ZM6.30823 29.0625V30.0625H7.30823V29.0625H6.30823ZM3.73882 29.0625H2.73882V30.0625H3.73882V29.0625ZM3.73882 9.35427V8.35427H2.73882V9.35427H3.73882ZM5.30823 9.35427V29.0625H7.30823V9.35427H5.30823ZM6.30823 28.0625H3.73882V30.0625H6.30823V28.0625ZM4.73882 29.0625V9.35427H2.73882V29.0625H4.73882ZM3.73882 10.3543H6.30823V8.35427H3.73882V10.3543ZM21.8021 15.9613L21.0428 16.6121L21.8021 15.9613ZM23.1574 29.0625V30.0625H24.1574V29.0625H23.1574ZM20.5879 29.0625H19.5879V30.0625H20.5879V29.0625ZM12.8515 19.4625L12.0714 18.8368L11.8515 19.111V19.4625H12.8515ZM12.8515 29.0625V30.0625H13.8515V29.0625H12.8515ZM10.2821 29.0625H9.28206V30.0625H10.2821V29.0625ZM10.2821 14.6625V13.6625H9.28206V14.6625H10.2821ZM12.5409 14.6625L13.5264 14.4931L13.3837 13.6625H12.5409V14.6625ZM12.8515 16.4696H13.8515V16.3842L13.837 16.3002L12.8515 16.4696ZM12.8515 16.8931H11.8515V17.8931H12.8515V16.8931ZM12.9079 16.8931V17.8931H13.35L13.6475 17.5662L12.9079 16.8931ZM18.1032 15.3801C19.4146 15.3801 20.3544 15.809 21.0428 16.6121L22.5613 15.3105C21.4427 14.0055 19.9165 13.3801 18.1032 13.3801V15.3801ZM21.0428 16.6121C21.7695 17.4599 22.1574 18.5366 22.1574 19.9143H24.1574C24.1574 18.1296 23.6417 16.571 22.5613 15.3105L21.0428 16.6121ZM22.1574 19.9143V29.0625H24.1574V19.9143H22.1574ZM23.1574 28.0625H20.5879V30.0625H23.1574V28.0625ZM21.5879 29.0625V20.1966H19.5879V29.0625H21.5879ZM21.5879 20.1966C21.5879 18.9183 21.302 17.7729 20.5542 16.9435C19.7885 16.0943 18.6998 15.7519 17.4821 15.7519V17.7519C18.3349 17.7519 18.7991 17.9836 19.0688 18.2827C19.3562 18.6015 19.5879 19.1784 19.5879 20.1966H21.5879ZM17.4821 15.7519C15.4301 15.7519 13.6281 16.896 12.0714 18.8368L13.6315 20.0882C14.9736 18.4149 16.2588 17.7519 17.4821 17.7519V15.7519ZM11.8515 19.4625V29.0625H13.8515V19.4625H11.8515ZM12.8515 28.0625H10.2821V30.0625H12.8515V28.0625ZM11.2821 29.0625V14.6625H9.28206V29.0625H11.2821ZM10.2821 15.6625H12.5409V13.6625H10.2821V15.6625ZM11.5553 14.8319L11.8659 16.639L13.837 16.3002L13.5264 14.4931L11.5553 14.8319ZM11.8515 16.4696V16.8931H13.8515V16.4696H11.8515ZM12.8515 17.8931H12.9079V15.8931H12.8515V17.8931ZM13.6475 17.5662C15.0177 16.0607 16.494 15.3801 18.1032 15.3801V13.3801C15.8348 13.3801 13.8476 14.3749 12.1684 16.22L13.6475 17.5662Z" fill="black"/>
<path d="M30.1788 14.6625C30.1788 15.4154 30.4706 16.0366 31.0541 16.526C31.6565 17.0154 32.4 17.3637 33.2847 17.5707C34.1694 17.759 35.1294 18.0037 36.1647 18.3049C37.2188 18.5872 38.1882 18.8978 39.0729 19.2366C39.9576 19.5754 40.6918 20.1401 41.2753 20.9307C41.8776 21.7025 42.1788 22.6719 42.1788 23.839C42.1788 25.4578 41.5106 26.7849 40.1741 27.8201C38.8565 28.8366 37.0118 29.3449 34.64 29.3449C32.2682 29.3449 30.0094 28.8366 27.8635 27.8201V25.3072H28.0047C29.9624 26.399 32.1929 26.9449 34.6965 26.9449C37.9906 26.9449 39.6376 25.8531 39.6376 23.6696C39.6376 22.5966 38.8376 21.806 37.2376 21.2978C36.5412 21.0719 35.7694 20.8554 34.9224 20.6484C34.0753 20.4413 33.2188 20.1966 32.3529 19.9143C31.5059 19.6319 30.7247 19.3025 30.0094 18.926C29.3129 18.5307 28.7388 17.9943 28.2871 17.3166C27.8541 16.6201 27.6376 15.8013 27.6376 14.8601C27.6376 13.2225 28.2776 11.8484 29.5576 10.7378C30.8565 9.62721 32.5976 9.07191 34.7812 9.07191C36.9835 9.07191 38.9694 9.41074 40.7388 10.0884V12.4884H40.5412C38.7718 11.7731 37.0682 11.4154 35.4306 11.4154C33.8118 11.4154 32.5318 11.7072 31.5906 12.2907C30.6494 12.8554 30.1788 13.646 30.1788 14.6625ZM49.5707 29.3449C48.0083 29.3449 46.7754 28.8178 45.8718 27.7637C44.9683 26.7096 44.5165 25.3919 44.5165 23.8107V14.6625H47.086V23.5284C47.086 25.8249 48.1212 26.9731 50.1918 26.9731C51.8295 26.9731 53.373 26.0696 54.8224 24.2625V14.6625H57.3918V29.0625H55.133L54.8224 27.2554V26.8319H54.766C53.2412 28.5072 51.5095 29.3449 49.5707 29.3449ZM63.6582 8.45074V29.0625H61.0888V8.45074H63.6582Z" fill="#4B6A89"/>
<path d="M31.0541 16.526L30.4115 17.2922L30.4175 17.2972L30.4235 17.3021L31.0541 16.526ZM33.2847 17.5707L33.0568 18.5444L33.0667 18.5467L33.0766 18.5488L33.2847 17.5707ZM36.1647 18.3049L35.8854 19.265L35.8956 19.268L35.906 19.2708L36.1647 18.3049ZM41.2753 20.9307L40.4707 21.5246L40.4787 21.5354L40.487 21.546L41.2753 20.9307ZM40.1741 27.8201L40.7849 28.6119L40.7865 28.6107L40.1741 27.8201ZM27.8635 27.8201H26.8635V28.453L27.4354 28.7239L27.8635 27.8201ZM27.8635 25.3072V24.3072H26.8635V25.3072H27.8635ZM28.0047 25.3072L28.4918 24.4338L28.2647 24.3072H28.0047V25.3072ZM37.2376 21.2978L36.9291 22.249L36.9349 22.2509L37.2376 21.2978ZM34.9224 20.6484L34.6849 21.6198L34.9224 20.6484ZM32.3529 19.9143L32.0367 20.863L32.0429 20.865L32.3529 19.9143ZM30.0094 18.926L29.5158 19.7957L29.5296 19.8036L29.5437 19.8109L30.0094 18.926ZM28.2871 17.3166L27.4378 17.8446L27.4462 17.8581L27.455 17.8713L28.2871 17.3166ZM29.5576 10.7378L28.9077 9.97774L28.9023 9.98247L29.5576 10.7378ZM40.7388 10.0884H41.7388V9.40053L41.0965 9.15453L40.7388 10.0884ZM40.7388 12.4884V13.4884H41.7388V12.4884H40.7388ZM40.5412 12.4884L40.1664 13.4155L40.3467 13.4884H40.5412V12.4884ZM31.5906 12.2907L32.1051 13.1482L32.1113 13.1445L32.1175 13.1406L31.5906 12.2907ZM29.1788 14.6625C29.1788 15.715 29.6044 16.6153 30.4115 17.2922L31.6967 15.7598C31.3367 15.4579 31.1788 15.1159 31.1788 14.6625H29.1788ZM30.4235 17.3021C31.1619 17.9021 32.0497 18.3087 33.0568 18.5444L33.5126 16.597C32.7503 16.4186 32.1511 16.1288 31.6847 15.7499L30.4235 17.3021ZM33.0766 18.5488C33.9333 18.7311 34.8693 18.9695 35.8854 19.265L36.444 17.3447C35.3895 17.0379 34.4055 16.7868 33.4928 16.5926L33.0766 18.5488ZM35.906 19.2708C36.9315 19.5455 37.8674 19.8457 38.7153 20.1705L39.4306 18.3028C38.5091 17.9498 37.5062 17.6289 36.4234 17.3389L35.906 19.2708ZM38.7153 20.1705C39.4147 20.4383 39.9962 20.8817 40.4707 21.5246L42.0799 20.3369C41.3873 19.3986 40.5006 18.7125 39.4306 18.3028L38.7153 20.1705ZM40.487 21.546C40.9272 22.11 41.1788 22.8505 41.1788 23.839H43.1788C43.1788 22.4933 42.8281 21.295 42.0636 20.3155L40.487 21.546ZM41.1788 23.839C41.1788 25.1329 40.6663 26.1739 39.5617 27.0296L40.7865 28.6107C42.3549 27.3958 43.1788 25.7827 43.1788 23.839H41.1788ZM39.5633 27.0284C38.4814 27.863 36.8822 28.3449 34.64 28.3449V30.3449C37.1414 30.3449 39.2316 29.8102 40.7849 28.6119L39.5633 27.0284ZM34.64 28.3449C32.4165 28.3449 30.3038 27.8696 28.2916 26.9164L27.4354 28.7239C29.715 29.8037 32.12 30.3449 34.64 30.3449V28.3449ZM28.8635 27.8201V25.3072H26.8635V27.8201H28.8635ZM27.8635 26.3072H28.0047V24.3072H27.8635V26.3072ZM27.5176 26.1806C29.641 27.3647 32.0428 27.9449 34.6965 27.9449V25.9449C32.3431 25.9449 30.2837 25.4332 28.4918 24.4338L27.5176 26.1806ZM34.6965 27.9449C36.4223 27.9449 37.8912 27.6646 38.9549 26.9595C40.0908 26.2066 40.6376 25.0551 40.6376 23.6696H38.6376C38.6376 24.4676 38.361 24.9537 37.8499 25.2925C37.2665 25.6792 36.2647 25.9449 34.6965 25.9449V27.9449ZM40.6376 23.6696C40.6376 22.8518 40.3204 22.1337 39.7406 21.5606C39.1864 21.013 38.4229 20.625 37.5404 20.3447L36.9349 22.2509C37.6524 22.4788 38.0889 22.7402 38.3347 22.9832C38.5549 23.2007 38.6376 23.4144 38.6376 23.6696H40.6376ZM37.5462 20.3466C36.8223 20.1118 36.0264 19.8888 35.1598 19.677L34.6849 21.6198C35.5124 21.8221 36.26 22.032 36.9291 22.249L37.5462 20.3466ZM35.1598 19.677C34.3382 19.4762 33.506 19.2384 32.663 18.9635L32.0429 20.865C32.9317 21.1548 33.8123 21.4065 34.6849 21.6198L35.1598 19.677ZM32.6692 18.9656C31.8683 18.6986 31.1377 18.3898 30.4752 18.0411L29.5437 19.8109C30.3117 20.2152 31.1434 20.5652 32.0367 20.8629L32.6692 18.9656ZM30.503 18.0563C29.9448 17.7395 29.4857 17.3119 29.1191 16.7619L27.455 17.8713C27.9919 18.6767 28.6811 19.322 29.5158 19.7957L30.503 18.0563ZM29.1363 16.7887C28.8158 16.273 28.6376 15.6429 28.6376 14.8601H26.6376C26.6376 15.9598 26.8924 16.9673 27.4378 17.8446L29.1363 16.7887ZM28.6376 14.8601C28.6376 13.5237 29.1432 12.4213 30.213 11.4931L28.9023 9.98247C27.4121 11.2754 26.6376 12.9213 26.6376 14.8601H28.6376ZM30.2075 11.4978C31.2796 10.5811 32.7681 10.0719 34.7812 10.0719V8.07191C32.4272 8.07191 30.4333 8.67329 28.9078 9.97776L30.2075 11.4978ZM34.7812 10.0719C36.8808 10.0719 38.7429 10.3948 40.3812 11.0222L41.0965 9.15453C39.196 8.42667 37.0863 8.07191 34.7812 8.07191V10.0719ZM39.7388 10.0884V12.4884H41.7388V10.0884H39.7388ZM40.7388 11.4884H40.5412V13.4884H40.7388V11.4884ZM40.916 11.5613C39.0469 10.8057 37.2161 10.4154 35.4306 10.4154V12.4154C36.9204 12.4154 38.4966 12.7405 40.1664 13.4155L40.916 11.5613ZM35.4306 10.4154C33.7065 10.4154 32.2201 10.7239 31.0636 11.4408L32.1175 13.1406C32.8435 12.6906 33.917 12.4154 35.4306 12.4154V10.4154ZM31.0761 11.4332C29.8628 12.1612 29.1788 13.2621 29.1788 14.6625H31.1788C31.1788 14.0299 31.436 13.5497 32.1051 13.1482L31.0761 11.4332ZM45.8718 27.7637L46.6311 27.1129L45.8718 27.7637ZM44.5165 14.6625V13.6625H43.5165V14.6625H44.5165ZM47.086 14.6625H48.086V13.6625H47.086V14.6625ZM54.8224 24.2625L55.6025 24.8882L55.8224 24.614V24.2625H54.8224ZM54.8224 14.6625V13.6625H53.8224V14.6625H54.8224ZM57.3918 14.6625H58.3918V13.6625H57.3918V14.6625ZM57.3918 29.0625V30.0625H58.3918V29.0625H57.3918ZM55.133 29.0625L54.1475 29.2319L54.2902 30.0625H55.133V29.0625ZM54.8224 27.2554H53.8224V27.3408L53.8369 27.4248L54.8224 27.2554ZM54.8224 26.8319H55.8224V25.8319H54.8224V26.8319ZM54.766 26.8319V25.8319H54.3239L54.0264 26.1588L54.766 26.8319ZM49.5707 28.3449C48.2593 28.3449 47.3195 27.916 46.6311 27.1129L45.1126 28.4145C46.2312 29.7196 47.7573 30.3449 49.5707 30.3449V28.3449ZM46.6311 27.1129C45.9044 26.2651 45.5165 25.1884 45.5165 23.8107H43.5165C43.5165 25.5954 44.0322 27.154 45.1126 28.4145L46.6311 27.1129ZM45.5165 23.8107V14.6625H43.5165V23.8107H45.5165ZM44.5165 15.6625H47.086V13.6625H44.5165V15.6625ZM46.086 14.6625V23.5284H48.086V14.6625H46.086ZM46.086 23.5284C46.086 24.8067 46.3719 25.9521 47.1197 26.7815C47.8854 27.6307 48.9741 27.9731 50.1918 27.9731V25.9731C49.339 25.9731 48.8748 25.7414 48.6051 25.4423C48.3177 25.1235 48.086 24.5466 48.086 23.5284H46.086ZM50.1918 27.9731C52.2438 27.9731 54.0458 26.829 55.6025 24.8882L54.0423 23.6368C52.7002 25.3101 51.4151 25.9731 50.1918 25.9731V27.9731ZM55.8224 24.2625V14.6625H53.8224V24.2625H55.8224ZM54.8224 15.6625H57.3918V13.6625H54.8224V15.6625ZM56.3918 14.6625V29.0625H58.3918V14.6625H56.3918ZM57.3918 28.0625H55.133V30.0625H57.3918V28.0625ZM56.1186 28.8931L55.808 27.0861L53.8369 27.4248L54.1475 29.2319L56.1186 28.8931ZM55.8224 27.2554V26.8319H53.8224V27.2554H55.8224ZM54.8224 25.8319H54.766V27.8319H54.8224V25.8319ZM54.0264 26.1588C52.6562 27.6643 51.1799 28.3449 49.5707 28.3449V30.3449C51.8391 30.3449 53.8263 29.3501 55.5055 27.505L54.0264 26.1588ZM63.6582 8.45074H64.6582V7.45074H63.6582V8.45074ZM63.6582 29.0625V30.0625H64.6582V29.0625H63.6582ZM61.0888 29.0625H60.0888V30.0625H61.0888V29.0625ZM61.0888 8.45074V7.45074H60.0888V8.45074H61.0888ZM62.6582 8.45074V29.0625H64.6582V8.45074H62.6582ZM63.6582 28.0625H61.0888V30.0625H63.6582V28.0625ZM62.0888 29.0625V8.45074H60.0888V29.0625H62.0888ZM61.0888 9.45074H63.6582V7.45074H61.0888V9.45074Z" fill="#4B6A89"/>
<path d="M86.0892 17.6986C86.7507 18.0845 86.7507 19.0403 86.0892 19.4262L68.5039 29.6843C67.8372 30.0732 67 29.5923 67 28.8205L67 8.30427C67 7.53248 67.8372 7.05161 68.5039 7.44049L77.285 12.5628L86.0892 17.6986Z" fill="#4B6A89"/>
<path d="M60.5301 36.0887C60.4637 36.0887 60.4078 36.066 60.3624 36.0206C60.317 35.9752 60.2943 35.9193 60.2943 35.8529V32.646C60.2943 32.5796 60.317 32.5238 60.3624 32.4783C60.4078 32.4294 60.4637 32.405 60.5301 32.405H61.7248C62.0566 32.405 62.3274 32.4609 62.537 32.5727C62.7466 32.6844 62.8968 32.8277 62.9876 33.0023C63.0784 33.177 63.1239 33.3656 63.1239 33.5683C63.1239 33.7709 63.0784 33.9595 62.9876 34.1342C62.8968 34.3088 62.7466 34.4521 62.537 34.5639C62.3274 34.6756 62.0566 34.7315 61.7248 34.7315H60.7711V35.8529C60.7711 35.9193 60.7466 35.9752 60.6977 36.0206C60.6523 36.066 60.5964 36.0887 60.5301 36.0887ZM61.6776 34.2809C62.0339 34.2809 62.2837 34.2128 62.4269 34.0765C62.5737 33.9403 62.647 33.7709 62.647 33.5683C62.647 33.3656 62.5737 33.1962 62.4269 33.06C62.2837 32.9237 62.0339 32.8556 61.6776 32.8556H60.7711V34.2809H61.6776ZM64.5965 36.1149C64.4044 36.1149 64.2367 36.0695 64.0935 35.9787C63.9537 35.8878 63.8454 35.7638 63.7686 35.6066C63.6952 35.4494 63.6585 35.2765 63.6585 35.0879V33.5997C63.6585 33.5333 63.6813 33.4774 63.7267 33.432C63.7756 33.3866 63.8332 33.3639 63.8996 33.3639C63.966 33.3639 64.0219 33.3866 64.0673 33.432C64.1127 33.4774 64.1354 33.5333 64.1354 33.5997V35.0355C64.1354 35.4616 64.3275 35.6747 64.7118 35.6747C64.8865 35.6747 65.0419 35.6293 65.1781 35.5385C65.3179 35.4477 65.4489 35.3254 65.5711 35.1717V33.5997C65.5711 33.5333 65.5939 33.4774 65.6393 33.432C65.6882 33.3866 65.7458 33.3639 65.8122 33.3639C65.8786 33.3639 65.9345 33.3866 65.9799 33.432C66.0253 33.4774 66.048 33.5333 66.048 33.5997V35.8477C66.048 35.914 66.0253 35.9717 65.9799 36.0206C65.9345 36.066 65.8786 36.0887 65.8122 36.0887C65.7458 36.0887 65.6882 36.066 65.6393 36.0206C65.5939 35.9717 65.5711 35.914 65.5711 35.8477V35.6328C65.4384 35.7795 65.2952 35.8966 65.1415 35.9839C64.9878 36.0712 64.8061 36.1149 64.5965 36.1149ZM68.2508 36.1149C67.9084 36.1149 67.6097 35.9822 67.3547 35.7167V35.8529C67.3547 35.9193 67.3303 35.9752 67.2814 36.0206C67.2359 36.066 67.18 36.0887 67.1137 36.0887C67.0473 36.0887 66.9914 36.066 66.946 36.0206C66.9006 35.9752 66.8779 35.9193 66.8779 35.8529V32.4521C66.8779 32.3858 66.9006 32.3299 66.946 32.2845C66.9914 32.2356 67.0473 32.2111 67.1137 32.2111C67.1835 32.2111 67.2412 32.2338 67.2866 32.2792C67.332 32.3246 67.3547 32.3823 67.3547 32.4521V33.7359C67.6097 33.4704 67.9084 33.3377 68.2508 33.3377C68.4673 33.3377 68.6717 33.3936 68.8638 33.5054C69.0595 33.6137 69.2167 33.7744 69.3354 33.9875C69.4577 34.1971 69.5188 34.4433 69.5188 34.7263C69.5188 35.0093 69.4577 35.2573 69.3354 35.4704C69.2167 35.68 69.0595 35.8407 68.8638 35.9525C68.6717 36.0608 68.4673 36.1149 68.2508 36.1149ZM68.1826 35.6695C68.4411 35.6695 68.649 35.5874 68.8062 35.4232C68.9634 35.259 69.042 35.0267 69.042 34.7263C69.042 34.4259 68.9634 34.1936 68.8062 34.0294C68.649 33.8652 68.4411 33.7831 68.1826 33.7831C68.0219 33.7831 67.87 33.8198 67.7268 33.8931C67.587 33.963 67.463 34.0573 67.3547 34.1761V35.2765C67.463 35.3953 67.587 35.4913 67.7268 35.5647C67.87 35.6346 68.0219 35.6695 68.1826 35.6695ZM70.4194 36.0887C70.353 36.0887 70.2971 36.066 70.2517 36.0206C70.2063 35.9752 70.1836 35.9193 70.1836 35.8529V32.4521C70.1836 32.3858 70.2063 32.3299 70.2517 32.2845C70.2971 32.2356 70.353 32.2111 70.4194 32.2111C70.4892 32.2111 70.5469 32.2338 70.5923 32.2792C70.6377 32.3246 70.6604 32.3823 70.6604 32.4521V35.8529C70.6604 35.9193 70.636 35.9752 70.5871 36.0206C70.5416 36.066 70.4857 36.0887 70.4194 36.0887ZM71.7138 32.8451C71.6404 32.8451 71.5775 32.8189 71.5251 32.7665C71.4727 32.7141 71.4465 32.6513 71.4465 32.5779V32.5569C71.4465 32.4836 71.4727 32.4207 71.5251 32.3683C71.5775 32.3159 71.6404 32.2897 71.7138 32.2897H71.7452C71.8186 32.2897 71.8815 32.3159 71.9339 32.3683C71.9863 32.4207 72.0125 32.4836 72.0125 32.5569V32.5779C72.0125 32.6513 71.9863 32.7141 71.9339 32.7665C71.8815 32.8189 71.8186 32.8451 71.7452 32.8451H71.7138ZM71.7243 36.0887C71.6579 36.0887 71.602 36.066 71.5566 36.0206C71.5112 35.9752 71.4885 35.9193 71.4885 35.8529V33.6049C71.4885 33.5386 71.5112 33.4827 71.5566 33.4373C71.602 33.3884 71.6579 33.3639 71.7243 33.3639C71.7941 33.3639 71.8518 33.3866 71.8972 33.432C71.9426 33.4774 71.9653 33.5351 71.9653 33.6049V35.8529C71.9653 35.9193 71.9408 35.9752 71.8919 36.0206C71.8465 36.066 71.7906 36.0887 71.7243 36.0887ZM74.03 36.1149C73.7785 36.1149 73.5462 36.059 73.3331 35.9472C73.12 35.8354 72.9488 35.6747 72.8195 35.4651C72.6938 35.2555 72.6309 35.0093 72.6309 34.7263C72.6309 34.4433 72.6938 34.1971 72.8195 33.9875C72.9488 33.7779 73.12 33.6172 73.3331 33.5054C73.5462 33.3936 73.7785 33.3377 74.03 33.3377C74.2151 33.3377 74.3741 33.3622 74.5068 33.4111C74.6431 33.4565 74.7688 33.5159 74.8841 33.5892C74.954 33.6346 74.9889 33.6958 74.9889 33.7726C74.9889 33.825 74.9679 33.8739 74.926 33.9193C74.8876 33.9613 74.8422 33.9822 74.7898 33.9822C74.7514 33.9822 74.7129 33.9717 74.6745 33.9508C74.5592 33.8914 74.4597 33.8495 74.3758 33.825C74.2955 33.7971 74.1942 33.7831 74.0719 33.7831C73.7715 33.7831 73.5357 33.8704 73.3645 34.0451C73.1933 34.2163 73.1077 34.4433 73.1077 34.7263C73.1077 35.0093 73.1933 35.2381 73.3645 35.4127C73.5357 35.5839 73.7715 35.6695 74.0719 35.6695C74.1942 35.6695 74.2955 35.6573 74.3758 35.6328C74.4597 35.6049 74.5592 35.5612 74.6745 35.5018C74.7129 35.4809 74.7514 35.4704 74.7898 35.4704C74.8422 35.4704 74.8876 35.4931 74.926 35.5385C74.9679 35.5804 74.9889 35.6276 74.9889 35.68C74.9889 35.7568 74.954 35.818 74.8841 35.8634C74.7688 35.9367 74.6431 35.9979 74.5068 36.0468C74.3741 36.0922 74.2151 36.1149 74.03 36.1149ZM75.8126 32.8451C75.7393 32.8451 75.6764 32.8189 75.624 32.7665C75.5716 32.7141 75.5454 32.6513 75.5454 32.5779V32.5569C75.5454 32.4836 75.5716 32.4207 75.624 32.3683C75.6764 32.3159 75.7393 32.2897 75.8126 32.2897H75.8441C75.9174 32.2897 75.9803 32.3159 76.0327 32.3683C76.0851 32.4207 76.1113 32.4836 76.1113 32.5569V32.5779C76.1113 32.6513 76.0851 32.7141 76.0327 32.7665C75.9803 32.8189 75.9174 32.8451 75.8441 32.8451H75.8126ZM75.8231 36.0887C75.7567 36.0887 75.7009 36.066 75.6554 36.0206C75.61 35.9752 75.5873 35.9193 75.5873 35.8529V33.6049C75.5873 33.5386 75.61 33.4827 75.6554 33.4373C75.7009 33.3884 75.7567 33.3639 75.8231 33.3639C75.893 33.3639 75.9506 33.3866 75.996 33.432C76.0415 33.4774 76.0642 33.5351 76.0642 33.6049V35.8529C76.0642 35.9193 76.0397 35.9752 75.9908 36.0206C75.9454 36.066 75.8895 36.0887 75.8231 36.0887ZM77.9978 36.1149C77.7813 36.1149 77.5751 36.0608 77.3795 35.9525C77.1874 35.8407 77.0302 35.68 76.9079 35.4704C76.7891 35.2573 76.7298 35.0093 76.7298 34.7263C76.7298 34.4433 76.7891 34.1971 76.9079 33.9875C77.0302 33.7744 77.1874 33.6137 77.3795 33.5054C77.5751 33.3936 77.7813 33.3377 77.9978 33.3377C78.3402 33.3377 78.6389 33.4704 78.8939 33.7359V32.4521C78.8939 32.3823 78.9166 32.3246 78.962 32.2792C79.0109 32.2338 79.0685 32.2111 79.1349 32.2111C79.2013 32.2111 79.2572 32.2356 79.3026 32.2845C79.348 32.3299 79.3707 32.3858 79.3707 32.4521V35.8529C79.3707 35.9193 79.348 35.9752 79.3026 36.0206C79.2572 36.066 79.2013 36.0887 79.1349 36.0887C79.0685 36.0887 79.0109 36.066 78.962 36.0206C78.9166 35.9752 78.8939 35.9193 78.8939 35.8529V35.7167C78.6389 35.9822 78.3402 36.1149 77.9978 36.1149ZM78.066 35.6695C78.2267 35.6695 78.3769 35.6346 78.5166 35.5647C78.6598 35.4913 78.7856 35.3953 78.8939 35.2765V34.1761C78.7856 34.0573 78.6598 33.963 78.5166 33.8931C78.3769 33.8198 78.2267 33.7831 78.066 33.7831C77.8075 33.7831 77.5996 33.8652 77.4424 34.0294C77.2852 34.1936 77.2066 34.4259 77.2066 34.7263C77.2066 35.0267 77.2852 35.259 77.4424 35.4232C77.5996 35.5874 77.8075 35.6695 78.066 35.6695ZM80.8791 36.1149C80.7254 36.1149 80.5822 36.0835 80.4494 36.0206C80.3202 35.9577 80.2171 35.8669 80.1403 35.7481C80.0634 35.6258 80.025 35.4861 80.025 35.3289C80.025 35.0704 80.1263 34.8643 80.3289 34.7106C80.535 34.5569 80.8354 34.48 81.2302 34.48H81.8642V34.4381C81.8642 34.2075 81.8066 34.0416 81.6913 33.9403C81.5795 33.839 81.4031 33.7883 81.1621 33.7883C81.0293 33.7883 80.9106 33.7988 80.8058 33.8198C80.7044 33.8407 80.5909 33.8722 80.4652 33.9141C80.4372 33.9211 80.4145 33.9246 80.397 33.9246C80.3446 33.9246 80.2992 33.9054 80.2608 33.8669C80.2224 33.8285 80.2032 33.7814 80.2032 33.7255C80.2032 33.6311 80.2486 33.5648 80.3394 33.5263C80.6363 33.4006 80.9385 33.3377 81.2459 33.3377C81.487 33.3377 81.6896 33.3866 81.8538 33.4844C82.0214 33.5822 82.1437 33.7097 82.2206 33.8669C82.3009 34.0206 82.3411 34.1883 82.3411 34.37V35.8529C82.3411 35.9193 82.3166 35.9752 82.2677 36.0206C82.2223 36.066 82.1664 36.0887 82.1 36.0887C82.0337 36.0887 81.9778 36.066 81.9324 36.0206C81.8869 35.9752 81.8642 35.9193 81.8642 35.8529V35.7167C81.6057 35.9822 81.2774 36.1149 80.8791 36.1149ZM81.0573 35.6957C81.211 35.6957 81.3594 35.659 81.5027 35.5857C81.6459 35.5088 81.7664 35.4145 81.8642 35.3027V34.8625H81.2931C80.7656 34.8625 80.5018 35.0005 80.5018 35.2765C80.5018 35.4023 80.5438 35.5036 80.6276 35.5804C80.7149 35.6573 80.8582 35.6957 81.0573 35.6957ZM84.2459 36.1149C84.0293 36.1149 83.8232 36.0608 83.6276 35.9525C83.4355 35.8407 83.2783 35.68 83.156 35.4704C83.0372 35.2573 82.9779 35.0093 82.9779 34.7263C82.9779 34.4433 83.0372 34.1971 83.156 33.9875C83.2783 33.7744 83.4355 33.6137 83.6276 33.5054C83.8232 33.3936 84.0293 33.3377 84.2459 33.3377C84.5883 33.3377 84.887 33.4704 85.142 33.7359V32.4521C85.142 32.3823 85.1647 32.3246 85.2101 32.2792C85.259 32.2338 85.3166 32.2111 85.383 32.2111C85.4494 32.2111 85.5053 32.2356 85.5507 32.2845C85.5961 32.3299 85.6188 32.3858 85.6188 32.4521V35.8529C85.6188 35.9193 85.5961 35.9752 85.5507 36.0206C85.5053 36.066 85.4494 36.0887 85.383 36.0887C85.3166 36.0887 85.259 36.066 85.2101 36.0206C85.1647 35.9752 85.142 35.9193 85.142 35.8529V35.7167C84.887 35.9822 84.5883 36.1149 84.2459 36.1149ZM84.3141 35.6695C84.4747 35.6695 84.625 35.6346 84.7647 35.5647C84.9079 35.4913 85.0337 35.3953 85.142 35.2765V34.1761C85.0337 34.0573 84.9079 33.963 84.7647 33.8931C84.625 33.8198 84.4747 33.7831 84.3141 33.7831C84.0555 33.7831 83.8477 33.8652 83.6905 34.0294C83.5333 34.1936 83.4547 34.4259 83.4547 34.7263C83.4547 35.0267 83.5333 35.259 83.6905 35.4232C83.8477 35.5874 84.0555 35.6695 84.3141 35.6695ZM87.6407 36.1149C87.2145 36.1149 86.8809 35.9944 86.6399 35.7533C86.4023 35.5088 86.2836 35.1665 86.2836 34.7263C86.2836 34.4783 86.329 34.2495 86.4198 34.0399C86.5106 33.8303 86.6504 33.6608 86.839 33.5316C87.0276 33.4023 87.2599 33.3377 87.5359 33.3377C87.7944 33.3377 88.018 33.3988 88.2066 33.5211C88.3953 33.6399 88.5385 33.8006 88.6363 34.0032C88.7341 34.2023 88.783 34.4206 88.783 34.6582C88.783 34.7246 88.7603 34.7804 88.7149 34.8259C88.673 34.8713 88.6154 34.894 88.542 34.894H86.7656C86.7936 35.1385 86.8844 35.3289 87.0381 35.4651C87.1918 35.6014 87.4067 35.6695 87.6826 35.6695C87.8294 35.6695 87.9569 35.6555 88.0652 35.6276C88.1769 35.5996 88.2852 35.5595 88.39 35.5071C88.418 35.4931 88.4494 35.4861 88.4844 35.4861C88.5402 35.4861 88.5892 35.5053 88.6311 35.5437C88.673 35.5822 88.694 35.6311 88.694 35.6905C88.694 35.7673 88.6485 35.8319 88.5577 35.8843C88.4215 35.9612 88.287 36.0188 88.1542 36.0573C88.0215 36.0957 87.8503 36.1149 87.6407 36.1149ZM88.3114 34.5062C88.301 34.335 88.2555 34.1918 88.1752 34.0765C88.0983 33.9613 88.0023 33.8774 87.887 33.825C87.7717 33.7691 87.6547 33.7412 87.5359 33.7412C87.4171 33.7412 87.3001 33.7691 87.1848 33.825C87.0696 33.8774 86.9735 33.9613 86.8966 34.0765C86.8198 34.1918 86.7761 34.335 86.7656 34.5062H88.3114Z" fill="black"/>
</svg>
